<svg preserveAspectRatio="none" width="100%" height="100%" overflow="visible" style="display: block;" viewBox="0 0 45.9773 47" fill="none" xmlns="http://www.w3.org/2000/svg">
<g id="Group">
<path id="Vector" d="M25.5455 16.1609C25.5455 10.5114 21.4239 7.13636 16.3409 7.13636M16.3409 40.8864C17.0231 42.5912 19.4091 46 23.5 46C32.7045 46 30.1477 39.8636 44.9773 39.8636" stroke="var(--stroke-0, #40B0FF)" stroke-width="2" stroke-linecap="round" stroke-linejoin="round"/>
<path id="Vector_2" d="M16.3409 33.7273C24.8132 33.7273 31.6818 24.4757 31.6818 15.4389C31.6818 6.40102 24.8132 1 16.3409 1C7.86864 1 1 6.40204 1 15.4389C1 24.4757 7.86864 33.7273 16.3409 33.7273ZM16.3409 33.7273C16.3409 33.7273 15.0615 34.57 13.1439 37.0961C13.0123 37.2693 12.8899 37.4343 12.7767 37.5911C11.6507 39.1477 12.5732 40.736 14.4918 40.8383C15.723 40.9038 16.9568 40.9038 18.188 40.8383C20.1066 40.736 21.0291 39.1477 19.9031 37.5911C19.7892 37.4343 19.6668 37.2693 19.5359 37.0961C17.6183 34.57 16.3409 33.7273 16.3409 33.7273Z" stroke="var(--stroke-0, #40B0FF)" stroke-width="2" stroke-linecap="round" stroke-linejoin="round"/>
</g>
</svg>
