<svg preserveAspectRatio="none" width="100%" height="100%" overflow="visible" style="display: block;" viewBox="0 0 46.7231 47" fill="none" xmlns="http://www.w3.org/2000/svg">
<g id="Group">
<path id="Vector" d="M17.3455 4.01866L2.2501 19.1141C1.44966 19.9148 1 21.0006 1 22.1328C1 23.2649 1.44966 24.3508 2.2501 25.1514L14.3248 37.2282C14.7213 37.6252 15.1922 37.9401 15.7105 38.155C16.2288 38.3699 16.7844 38.4805 17.3455 38.4805C17.9066 38.4805 18.4622 38.3699 18.9806 38.155C19.4989 37.9401 19.9698 37.6252 20.3663 37.2282L35.4597 22.1328L17.3455 4.01866ZM17.3455 4.01866L14.3269 1" stroke="var(--stroke-0, #43AA8B)" stroke-width="2" stroke-linecap="round" stroke-linejoin="round"/>
<path id="Vector_2" d="M39.3186 29.1625C39.3186 29.1625 45.7231 35.5521 45.7231 39.5955C45.7231 43.1286 42.8517 46 39.3186 46C35.7854 46 32.9397 43.1286 32.9141 39.5955C32.9354 35.55 39.3186 29.1625 39.3186 29.1625Z" stroke="var(--stroke-0, #43AA8B)" stroke-width="2" stroke-miterlimit="1.5" stroke-linecap="round" stroke-linejoin="round"/>
</g>
</svg>
