<svg preserveAspectRatio="none" width="100%" height="100%" overflow="visible" style="display: block;" viewBox="0 0 42.7765 45" fill="none" xmlns="http://www.w3.org/2000/svg">
<g id="Vector">
<mask id="path-1-inside-1_0_4" fill="white">
<path d="M21.8542 26.3542C22.2847 25.9222 22.5 25.3875 22.5 24.75V13.5C22.5 12.8625 22.284 12.3285 21.852 11.898C21.42 11.4675 20.886 11.2515 20.25 11.25C19.614 11.2485 19.08 11.4645 18.648 11.898C18.216 12.3315 18 12.8655 18 13.5V24.75C18 25.3875 18.216 25.9222 18.648 26.3542C19.08 26.7862 19.614 27.0015 20.25 27C20.886 26.9985 21.4207 26.7825 21.8542 26.352M28.6042 22.977C29.0347 22.548 29.25 22.014 29.25 21.375V15.75C29.25 15.1125 29.034 14.5785 28.602 14.148C28.17 13.7175 27.636 13.5015 27 13.5C26.364 13.4985 25.83 13.7145 25.398 14.148C24.966 14.5815 24.75 15.1155 24.75 15.75V21.375C24.75 22.0125 24.966 22.5472 25.398 22.9792C25.83 23.4112 26.364 23.6265 27 23.625C27.636 23.6235 28.1707 23.4075 28.6042 22.977ZM15.1042 21.852C15.5347 21.423 15.75 20.889 15.75 20.25V15.75C15.75 15.1125 15.534 14.5785 15.102 14.148C14.67 13.7175 14.136 13.5015 13.5 13.5C12.864 13.4985 12.33 13.7145 11.898 14.148C11.466 14.5815 11.25 15.1155 11.25 15.75V20.25C11.25 20.8875 11.466 21.4222 11.898 21.8542C12.33 22.2862 12.864 22.5015 13.5 22.5C14.136 22.4985 14.6707 22.2825 15.1042 21.852ZM6.75 35.325C4.6125 33.375 2.9535 31.0972 1.773 28.4917C0.5925 25.8862 0.0015 23.139 0 20.25C0 14.625 1.96875 9.84375 5.90625 5.90625C9.84375 1.96875 14.625 0 20.25 0C24.9375 0 29.091 1.3785 32.7105 4.1355C36.33 6.8925 38.6827 10.4827 39.7687 14.9062L42.6937 26.4375C42.8812 27.15 42.75 27.7972 42.3 28.3792C41.85 28.9612 41.25 29.2515 40.5 29.25H36V36C36 37.2375 35.5597 38.2972 34.6792 39.1792C33.7987 40.0612 32.739 40.5015 31.5 40.5H27V42.75C27 43.3875 26.784 43.9222 26.352 44.3542C25.92 44.7862 25.386 45.0015 24.75 45C24.114 44.9985 23.58 44.7825 23.148 44.352C22.716 43.9215 22.5 43.3875 22.5 42.75V38.25C22.5 37.6125 22.716 37.0785 23.148 36.648C23.58 36.2175 24.114 36.0015 24.75 36H31.5V27C31.5 26.3625 31.716 25.8285 32.148 25.398C32.58 24.9675 33.114 24.7515 33.75 24.75H37.575L35.4375 16.0312C34.575 12.6187 32.7375 9.84375 29.925 7.70625C27.1125 5.56875 23.8875 4.5 20.25 4.5C15.9 4.5 12.1875 6.01875 9.1125 9.05625C6.0375 12.0937 4.5 15.7875 4.5 20.1375C4.5 22.3875 4.95975 24.525 5.87925 26.55C6.79875 28.575 8.1015 30.375 9.7875 31.95L11.25 33.3V42.75C11.25 43.3875 11.034 43.9222 10.602 44.3542C10.17 44.7862 9.636 45.0015 9 45C8.364 44.9985 7.83 44.7825 7.398 44.352C6.966 43.9215 6.75 43.3875 6.75 42.75V35.325Z"/>
</mask>
<path d="M21.8542 26.3542C22.2847 25.9222 22.5 25.3875 22.5 24.75V13.5C22.5 12.8625 22.284 12.3285 21.852 11.898C21.42 11.4675 20.886 11.2515 20.25 11.25C19.614 11.2485 19.08 11.4645 18.648 11.898C18.216 12.3315 18 12.8655 18 13.5V24.75C18 25.3875 18.216 25.9222 18.648 26.3542C19.08 26.7862 19.614 27.0015 20.25 27C20.886 26.9985 21.4207 26.7825 21.8542 26.352M28.6042 22.977C29.0347 22.548 29.25 22.014 29.25 21.375V15.75C29.25 15.1125 29.034 14.5785 28.602 14.148C28.17 13.7175 27.636 13.5015 27 13.5C26.364 13.4985 25.83 13.7145 25.398 14.148C24.966 14.5815 24.75 15.1155 24.75 15.75V21.375C24.75 22.0125 24.966 22.5472 25.398 22.9792C25.83 23.4112 26.364 23.6265 27 23.625C27.636 23.6235 28.1707 23.4075 28.6042 22.977ZM15.1042 21.852C15.5347 21.423 15.75 20.889 15.75 20.25V15.75C15.75 15.1125 15.534 14.5785 15.102 14.148C14.67 13.7175 14.136 13.5015 13.5 13.5C12.864 13.4985 12.33 13.7145 11.898 14.148C11.466 14.5815 11.25 15.1155 11.25 15.75V20.25C11.25 20.8875 11.466 21.4222 11.898 21.8542C12.33 22.2862 12.864 22.5015 13.5 22.5C14.136 22.4985 14.6707 22.2825 15.1042 21.852ZM6.75 35.325C4.6125 33.375 2.9535 31.0972 1.773 28.4917C0.5925 25.8862 0.0015 23.139 0 20.25C0 14.625 1.96875 9.84375 5.90625 5.90625C9.84375 1.96875 14.625 0 20.25 0C24.9375 0 29.091 1.3785 32.7105 4.1355C36.33 6.8925 38.6827 10.4827 39.7687 14.9062L42.6937 26.4375C42.8812 27.15 42.75 27.7972 42.3 28.3792C41.85 28.9612 41.25 29.2515 40.5 29.25H36V36C36 37.2375 35.5597 38.2972 34.6792 39.1792C33.7987 40.0612 32.739 40.5015 31.5 40.5H27V42.75C27 43.3875 26.784 43.9222 26.352 44.3542C25.92 44.7862 25.386 45.0015 24.75 45C24.114 44.9985 23.58 44.7825 23.148 44.352C22.716 43.9215 22.5 43.3875 22.5 42.75V38.25C22.5 37.6125 22.716 37.0785 23.148 36.648C23.58 36.2175 24.114 36.0015 24.75 36H31.5V27C31.5 26.3625 31.716 25.8285 32.148 25.398C32.58 24.9675 33.114 24.7515 33.75 24.75H37.575L35.4375 16.0312C34.575 12.6187 32.7375 9.84375 29.925 7.70625C27.1125 5.56875 23.8875 4.5 20.25 4.5C15.9 4.5 12.1875 6.01875 9.1125 9.05625C6.0375 12.0937 4.5 15.7875 4.5 20.1375C4.5 22.3875 4.95975 24.525 5.87925 26.55C6.79875 28.575 8.1015 30.375 9.7875 31.95L11.25 33.3V42.75C11.25 43.3875 11.034 43.9222 10.602 44.3542C10.17 44.7862 9.636 45.0015 9 45C8.364 44.9985 7.83 44.7825 7.398 44.352C6.966 43.9215 6.75 43.3875 6.75 42.75V35.325Z" fill="var(--fill-0, #511806)"/>
<path d="M28.6042 22.977L29.4498 23.8285L29.4513 23.827L28.6042 22.977ZM15.1042 21.852L15.9498 22.7035L15.9513 22.702L15.1042 21.852ZM6.75 35.325H7.95V34.7954L7.55875 34.4385L6.75 35.325ZM0 20.25H-1.2L-1.2 20.2506L0 20.25ZM39.7687 14.9062L38.6033 15.1924L38.6056 15.2013L39.7687 14.9062ZM42.6937 26.4375L41.5305 26.7326L41.5333 26.7429L42.6937 26.4375ZM40.5 29.25L40.5024 28.05H40.5V29.25ZM36 29.25V28.05H34.8V29.25H36ZM31.5 40.5L31.5014 39.3H31.5V40.5ZM27 40.5V39.3H25.8V40.5H27ZM24.75 36V34.8L24.7472 34.8L24.75 36ZM31.5 36V37.2H32.7V36H31.5ZM33.75 24.75V23.55L33.7472 23.55L33.75 24.75ZM37.575 24.75V25.95H39.1047L38.7405 24.4643L37.575 24.75ZM35.4375 16.0312L36.603 15.7455L36.6009 15.7372L35.4375 16.0312ZM9.7875 31.95L8.96831 32.8269L8.97356 32.8318L9.7875 31.95ZM11.25 33.3H12.45V32.7746L12.0639 32.4182L11.25 33.3ZM21.8542 26.3542L22.7042 27.2013C23.3699 26.5333 23.7 25.689 23.7 24.75H22.5H21.3C21.3 25.086 21.1995 25.3112 21.0042 25.5072L21.8542 26.3542ZM22.5 24.75H23.7V13.5H22.5H21.3V24.75H22.5ZM22.5 13.5H23.7C23.7 12.5596 23.3682 11.7148 22.699 11.048L21.852 11.898L21.0049 12.748C21.1998 12.9422 21.3 13.1654 21.3 13.5H22.5ZM21.852 11.898L22.699 11.048C22.0323 10.3836 21.1903 10.0522 20.2528 10.05L20.25 11.25L20.2472 12.45C20.5817 12.4508 20.8076 12.5514 21.0049 12.748L21.852 11.898ZM20.25 11.25L20.2528 10.05C19.3109 10.0478 18.4656 10.3811 17.798 11.0509L18.648 11.898L19.498 12.7451C19.6944 12.5479 19.9171 12.4492 20.2472 12.45L20.25 11.25ZM18.648 11.898L17.798 11.0509C17.1328 11.7184 16.8 12.561 16.8 13.5H18H19.2C19.2 13.17 19.2992 12.9446 19.498 12.7451L18.648 11.898ZM18 13.5H16.8V24.75H18H19.2V13.5H18ZM18 24.75H16.8C16.8 25.6903 17.1317 26.5351 17.7995 27.2028L18.648 26.3542L19.4965 25.5057C19.3002 25.3094 19.2 25.0847 19.2 24.75H18ZM18.648 26.3542L17.7995 27.2028C18.4673 27.8706 19.3122 28.2022 20.2528 28.2L20.25 27L20.2472 25.8C19.9158 25.8008 19.6927 25.7018 19.4965 25.5057L18.648 26.3542ZM20.25 27L20.2528 28.2C21.1902 28.1978 22.0322 27.8665 22.6998 27.2035L21.8542 26.352L21.0087 25.5005C20.8093 25.6985 20.5818 25.7992 20.2472 25.8L20.25 27ZM28.6042 22.977L29.4513 23.827C30.1203 23.1603 30.45 22.3147 30.45 21.375H29.25H28.05C28.05 21.7133 27.9491 21.9357 27.7572 22.127L28.6042 22.977ZM29.25 21.375H30.45V15.75H29.25H28.05V21.375H29.25ZM29.25 15.75H30.45C30.45 14.8096 30.1181 13.9648 29.449 13.298L28.602 14.148L27.7549 14.998C27.9498 15.1922 28.05 15.4154 28.05 15.75H29.25ZM28.602 14.148L29.449 13.298C28.7823 12.6336 27.9403 12.3022 27.0028 12.3L27 13.5L26.9972 14.7C27.3317 14.7008 27.5576 14.8014 27.7549 14.998L28.602 14.148ZM27 13.5L27.0028 12.3C26.0609 12.2978 25.2156 12.6311 24.548 13.3009L25.398 14.148L26.248 14.9951C26.4444 14.7979 26.6671 14.6992 26.9972 14.7L27 13.5ZM25.398 14.148L24.548 13.3009C23.8828 13.9684 23.55 14.811 23.55 15.75H24.75H25.95C25.95 15.42 26.0492 15.1946 26.248 14.9951L25.398 14.148ZM24.75 15.75H23.55V21.375H24.75H25.95V15.75H24.75ZM24.75 21.375H23.55C23.55 22.3153 23.8817 23.1601 24.5495 23.8278L25.398 22.9792L26.2465 22.1307C26.0502 21.9344 25.95 21.7097 25.95 21.375H24.75ZM25.398 22.9792L24.5495 23.8278C25.2173 24.4956 26.0622 24.8272 27.0028 24.825L27 23.625L26.9972 22.425C26.6658 22.4258 26.4427 22.3268 26.2465 22.1307L25.398 22.9792ZM27 23.625L27.0028 24.825C27.9402 24.8228 28.7822 24.4915 29.4498 23.8285L28.6042 22.977L27.7587 22.1255C27.5593 22.3235 27.3318 22.4242 26.9972 22.425L27 23.625ZM15.1042 21.852L15.9513 22.702C16.6204 22.0353 16.95 21.1897 16.95 20.25H15.75H14.55C14.55 20.5883 14.4491 20.8107 14.2572 21.002L15.1042 21.852ZM15.75 20.25H16.95V15.75H15.75H14.55V20.25H15.75ZM15.75 15.75H16.95C16.95 14.8096 16.6182 13.9648 15.949 13.298L15.102 14.148L14.2549 14.998C14.4498 15.1922 14.55 15.4154 14.55 15.75H15.75ZM15.102 14.148L15.949 13.298C15.2823 12.6336 14.4403 12.3022 13.5028 12.3L13.5 13.5L13.4972 14.7C13.8317 14.7008 14.0576 14.8014 14.2549 14.998L15.102 14.148ZM13.5 13.5L13.5028 12.3C12.5609 12.2978 11.7156 12.6311 11.048 13.3009L11.898 14.148L12.748 14.9951C12.9444 14.7979 13.1671 14.6992 13.4972 14.7L13.5 13.5ZM11.898 14.148L11.048 13.3009C10.3828 13.9684 10.05 14.811 10.05 15.75H11.25H12.45C12.45 15.42 12.5492 15.1946 12.748 14.9951L11.898 14.148ZM11.25 15.75H10.05V20.25H11.25H12.45V15.75H11.25ZM11.25 20.25H10.05C10.05 21.1903 10.3818 22.0351 11.0495 22.7028L11.898 21.8542L12.7465 21.0057C12.5502 20.8094 12.45 20.5847 12.45 20.25H11.25ZM11.898 21.8542L11.0495 22.7028C11.7173 23.3706 12.5622 23.7022 13.5028 23.7L13.5 22.5L13.4972 21.3C13.1658 21.3008 12.9427 21.2018 12.7465 21.0057L11.898 21.8542ZM13.5 22.5L13.5028 23.7C14.4402 23.6978 15.2822 23.3665 15.9498 22.7035L15.1042 21.852L14.2587 21.0005C14.0593 21.1985 13.8318 21.2992 13.4972 21.3L13.5 22.5ZM6.75 35.325L7.55875 34.4385C5.54017 32.597 3.97853 30.4519 2.86604 27.9965L1.773 28.4917L0.679957 28.987C1.92847 31.7426 3.68483 34.153 5.94124 36.2115L6.75 35.325ZM1.773 28.4917L2.86604 27.9965C1.75667 25.548 1.20141 22.9695 1.2 20.2494L0 20.25L-1.2 20.2506C-1.19841 23.3085 -0.57167 26.2245 0.679957 28.987L1.773 28.4917ZM0 20.25H1.2C1.2 14.9396 3.04488 10.4647 6.75478 6.75478L5.90625 5.90625L5.05772 5.05772C0.892622 9.22282 -1.2 14.3104 -1.2 20.25H0ZM5.90625 5.90625L6.75478 6.75478C10.4647 3.04488 14.9396 1.2 20.25 1.2V0V-1.2C14.3104 -1.2 9.22282 0.892622 5.05772 5.05772L5.90625 5.90625ZM20.25 0V1.2C24.6833 1.2 28.5795 2.4974 31.9834 5.09011L32.7105 4.1355L33.4376 3.18089C29.6024 0.259603 25.1916 -1.2 20.25 -1.2V0ZM32.7105 4.1355L31.9834 5.09011C35.3844 7.68071 37.5827 11.0349 38.6033 15.1924L39.7687 14.9062L40.9341 14.6201C39.7828 9.93058 37.2756 6.10428 33.4376 3.18089L32.7105 4.1355ZM39.7687 14.9062L38.6056 15.2013L41.5306 26.7325L42.6937 26.4375L43.8569 26.1424L40.9319 14.6112L39.7687 14.9062ZM42.6937 26.4375L41.5333 26.7429C41.6261 27.0955 41.5723 27.3586 41.3507 27.6452L42.3 28.3792L43.2493 29.1133C43.9277 28.2359 44.1364 27.2044 43.8542 26.1321L42.6937 26.4375ZM42.3 28.3792L41.3507 27.6452C41.1336 27.926 40.8885 28.0508 40.5024 28.05L40.5 29.25L40.4976 30.45C41.6115 30.4522 42.5664 29.9965 43.2493 29.1133L42.3 28.3792ZM40.5 29.25V28.05H36V29.25V30.45H40.5V29.25ZM36 29.25H34.8V36H36H37.2V29.25H36ZM36 36H34.8C34.8 36.9171 34.4877 37.6726 33.83 38.3314L34.6792 39.1792L35.5285 40.027C36.6318 38.9219 37.2 37.5579 37.2 36H36ZM34.6792 39.1792L33.83 38.3314C33.1735 38.9891 32.4192 39.3011 31.5014 39.3L31.5 40.5L31.4985 41.7C33.0588 41.7019 34.424 41.1334 35.5285 40.027L34.6792 39.1792ZM31.5 40.5V39.3H27V40.5V41.7H31.5V40.5ZM27 40.5H25.8V42.75H27H28.2V40.5H27ZM27 42.75H25.8C25.8 43.0847 25.6997 43.3094 25.5035 43.5057L26.352 44.3542L27.2005 45.2028C27.8682 44.535 28.2 43.6903 28.2 42.75H27ZM26.352 44.3542L25.5035 43.5057C25.3073 43.7018 25.0842 43.8008 24.7528 43.8L24.75 45L24.7472 46.2C25.6878 46.2022 26.5327 45.8706 27.2005 45.2028L26.352 44.3542ZM24.75 45L24.7528 43.8C24.4183 43.7992 24.1923 43.6986 23.995 43.502L23.148 44.352L22.3009 45.202C22.9676 45.8664 23.8097 46.1978 24.7472 46.2L24.75 45ZM23.148 44.352L23.995 43.502C23.8001 43.3078 23.7 43.0846 23.7 42.75H22.5H21.3C21.3 43.6904 21.6318 44.5352 22.3009 45.202L23.148 44.352ZM22.5 42.75H23.7V38.25H22.5H21.3V42.75H22.5ZM22.5 38.25H23.7C23.7 37.9154 23.8001 37.6922 23.995 37.498L23.148 36.648L22.3009 35.798C21.6318 36.4648 21.3 37.3096 21.3 38.25H22.5ZM23.148 36.648L23.995 37.498C24.1923 37.3014 24.4183 37.2008 24.7528 37.2L24.75 36L24.7472 34.8C23.8097 34.8022 22.9676 35.1336 22.3009 35.798L23.148 36.648ZM24.75 36V37.2H31.5V36V34.8H24.75V36ZM31.5 36H32.7V27H31.5H30.3V36H31.5ZM31.5 27H32.7C32.7 26.6654 32.8001 26.4422 32.995 26.248L32.148 25.398L31.3009 24.548C30.6318 25.2148 30.3 26.0596 30.3 27H31.5ZM32.148 25.398L32.995 26.248C33.1923 26.0514 33.4183 25.9508 33.7528 25.95L33.75 24.75L33.7472 23.55C32.8097 23.5522 31.9676 23.8836 31.3009 24.548L32.148 25.398ZM33.75 24.75V25.95H37.575V24.75V23.55H33.75V24.75ZM37.575 24.75L38.7405 24.4643L36.603 15.7455L35.4375 16.0312L34.272 16.317L36.4095 25.0357L37.575 24.75ZM35.4375 16.0312L36.6009 15.7372C35.6715 12.06 33.6792 9.05224 30.6511 6.75085L29.925 7.70625L29.1989 8.66164C31.7958 10.6353 33.4785 13.1775 34.2741 16.3253L35.4375 16.0312ZM29.925 7.70625L30.6511 6.75085C27.6232 4.44967 24.1414 3.3 20.25 3.3V4.5V5.7C23.6336 5.7 26.6018 6.68783 29.1989 8.66164L29.925 7.70625ZM20.25 4.5V3.3C15.5866 3.3 11.5704 4.94157 8.26919 8.20253L9.1125 9.05625L9.9558 9.90997C12.8046 7.09593 16.2134 5.7 20.25 5.7V4.5ZM9.1125 9.05625L8.26919 8.20253C4.96431 11.4671 3.3 15.469 3.3 20.1375H4.5H5.7C5.7 16.106 7.11069 12.7204 9.9558 9.90997L9.1125 9.05625ZM4.5 20.1375H3.3C3.3 22.5566 3.79551 24.8634 4.78661 27.0461L5.87925 26.55L6.97188 26.0539C6.12399 24.1866 5.7 22.2184 5.7 20.1375H4.5ZM5.87925 26.55L4.78661 27.0461C5.77379 29.2202 7.17143 31.1483 8.96833 32.8269L9.7875 31.95L10.6067 31.0731C9.03157 29.6017 7.8237 27.9298 6.97188 26.0539L5.87925 26.55ZM9.7875 31.95L8.97356 32.8318L10.4361 34.1818L11.25 33.3L12.0639 32.4182L10.6014 31.0682L9.7875 31.95ZM11.25 33.3H10.05V42.75H11.25H12.45V33.3H11.25ZM11.25 42.75H10.05C10.05 43.0847 9.94975 43.3094 9.75347 43.5057L10.602 44.3542L11.4505 45.2028C12.1182 44.535 12.45 43.6903 12.45 42.75H11.25ZM10.602 44.3542L9.75347 43.5057C9.55734 43.7018 9.3342 43.8008 9.00283 43.8L9 45L8.99717 46.2C9.93779 46.2022 10.7827 45.8706 11.4505 45.2028L10.602 44.3542ZM9 45L9.00283 43.8C8.66829 43.7992 8.44235 43.6986 8.24505 43.502L7.398 44.352L6.55095 45.202C7.21765 45.8664 8.05971 46.1978 8.99717 46.2L9 45ZM7.398 44.352L8.24505 43.502C8.05015 43.3078 7.95 43.0846 7.95 42.75H6.75H5.55C5.55 43.6904 5.88184 44.5352 6.55095 45.202L7.398 44.352ZM6.75 42.75H7.95V35.325H6.75H5.55V42.75H6.75Z" fill="var(--stroke-0, #FAE2E2)" mask="url(#path-1-inside-1_0_4)"/>
</g>
</svg>
