<svg preserveAspectRatio="none" width="100%" height="100%" overflow="visible" style="display: block;" viewBox="0 0 44.1554 45" fill="none" xmlns="http://www.w3.org/2000/svg">
<g id="Vector">
<mask id="path-1-inside-1_0_4" fill="white">
<path d="M22.5015 13.5363C21.7833 13.5363 21.0945 13.251 20.5867 12.7432C20.0789 12.2354 19.7936 11.5466 19.7936 10.8284V2.70784C19.7936 1.98967 20.0789 1.30092 20.5867 0.793107C21.0945 0.285289 21.7833 0 22.5015 0C23.2196 0 23.9084 0.285289 24.4162 0.793107C24.924 1.30092 25.2093 1.98967 25.2093 2.70784V10.8284C25.2093 11.5466 24.924 12.2354 24.4162 12.7432C23.9084 13.251 23.2196 13.5363 22.5015 13.5363ZM22.5015 45C22.0527 45 21.6223 44.8217 21.305 44.5044C20.9877 44.1871 20.8094 43.7567 20.8094 43.308V35.1874C20.8094 34.7386 20.9877 34.3082 21.305 33.9909C21.6223 33.6736 22.0527 33.4953 22.5015 33.4953C22.9502 33.4953 23.3806 33.6736 23.6979 33.9909C24.0152 34.3082 24.1935 34.7386 24.1935 35.1874V43.308C24.1935 43.7567 24.0152 44.1871 23.6979 44.5044C23.3806 44.8217 22.9502 45 22.5015 45ZM16.4124 14.999C15.967 14.9978 15.5296 14.8802 15.1437 14.6577C14.7578 14.4352 14.4368 14.1156 14.2125 13.7307L10.1522 6.69848C9.81583 6.1158 9.72471 5.42335 9.89888 4.77347C10.0731 4.12359 10.4983 3.56952 11.0809 3.23315C11.6636 2.89678 12.3561 2.80565 13.006 2.97982C13.6558 3.15399 14.2099 3.57919 14.5463 4.16188L18.6066 11.1941C18.8291 11.5795 18.9463 12.0167 18.9464 12.4618C18.9465 12.9068 18.8296 13.3441 18.6072 13.7296C18.3849 14.1151 18.0651 14.4354 17.6798 14.6582C17.2946 14.881 16.8575 14.9986 16.4124 14.999ZM32.6537 42.1122C32.3865 42.1111 32.1242 42.0404 31.8926 41.907C31.6611 41.7737 31.4682 41.5823 31.3331 41.3518L27.2728 34.3196C27.1672 34.1461 27.0973 33.9533 27.0673 33.7525C27.0372 33.5516 27.0476 33.3468 27.0979 33.1501C27.1481 32.9533 27.2372 32.7686 27.3599 32.6067C27.4825 32.4449 27.6363 32.3092 27.8122 32.2077C27.988 32.1061 28.1824 32.0407 28.3839 32.0153C28.5854 31.99 28.7899 32.0051 28.9854 32.0599C29.1809 32.1147 29.3636 32.2081 29.5225 32.3344C29.6815 32.4608 29.8135 32.6177 29.911 32.7959L33.9713 39.8281C34.1046 40.0596 34.1747 40.322 34.1746 40.5891C34.1745 40.8562 34.1042 41.1186 33.9707 41.3499C33.8373 41.5813 33.6453 41.7735 33.4142 41.9073C33.183 42.0411 32.9208 42.1117 32.6537 42.1122ZM11.9516 19.2886C11.5367 19.2906 11.1288 19.1814 10.7704 18.9723L3.73815 14.912C3.22169 14.5843 2.85183 14.0697 2.70585 13.4757C2.55986 12.8818 2.64904 12.2544 2.95476 11.7246C3.26047 11.1949 3.75907 10.8037 4.34639 10.6329C4.9337 10.4621 5.56429 10.5249 6.10642 10.8081L13.1387 14.8684C13.5884 15.1303 13.9395 15.5329 14.1377 16.0141C14.336 16.4953 14.3705 17.0283 14.2358 17.531C14.1011 18.0338 13.8048 18.4782 13.3925 18.7958C12.9803 19.1134 12.475 19.2866 11.9545 19.2886H11.9516ZM40.0806 34.514C39.843 34.5144 39.6095 34.4512 39.4044 34.3312L32.3721 30.2709C32.0806 30.082 31.8728 29.7885 31.7914 29.4508C31.7101 29.1131 31.7615 28.7571 31.935 28.4563C32.1086 28.1554 32.391 27.9326 32.724 27.8339C33.057 27.7352 33.4152 27.7681 33.7246 27.9258L40.7569 31.9861C41.0131 32.1362 41.213 32.3662 41.3258 32.6408C41.4386 32.9155 41.4581 33.2196 41.3813 33.5064C41.3045 33.7932 41.1356 34.0469 40.9006 34.2284C40.6656 34.4099 40.3775 34.5122 40.0806 34.514ZM10.3205 25.2093H2.19994C1.61648 25.2093 1.05691 24.9775 0.644346 24.5649C0.231778 24.1524 0 23.5928 0 23.0094C0 22.4259 0.231778 21.8663 0.644346 21.4538C1.05691 21.0412 1.61648 20.8094 2.19994 20.8094H10.3205C10.904 20.8094 11.4636 21.0412 11.8761 21.4538C12.2887 21.8663 12.5205 22.4259 12.5205 23.0094C12.5205 23.5928 12.2887 24.1524 11.8761 24.5649C11.4636 24.9775 10.904 25.2093 10.3205 25.2093ZM42.803 24.3618H34.6824C34.3237 24.3618 33.9797 24.2193 33.726 23.9657C33.4724 23.7121 33.3299 23.368 33.3299 23.0094C33.3299 22.6507 33.4724 22.3067 33.726 22.053C33.9797 21.7994 34.3237 21.6569 34.6824 21.6569H42.803C43.1617 21.6569 43.5057 21.7994 43.7593 22.053C44.0129 22.3067 44.1554 22.6507 44.1554 23.0094C44.1554 23.368 44.0129 23.7121 43.7593 23.9657C43.5057 24.2193 43.1617 24.3618 42.803 24.3618ZM4.92228 35.1903C4.47373 35.1938 4.03671 35.0483 3.67975 34.7766C3.32279 34.505 3.06608 34.1226 2.94988 33.6893C2.83368 33.256 2.86457 32.7965 3.03769 32.3827C3.21081 31.9689 3.51638 31.6242 3.90648 31.4028L10.9387 27.3425C11.4048 27.0734 11.9587 27.0006 12.4784 27.1399C12.7358 27.2089 12.9771 27.3279 13.1885 27.4902C13.3999 27.6524 13.5772 27.8547 13.7104 28.0855C13.8436 28.3162 13.9301 28.571 13.9648 28.8352C13.9996 29.0994 13.9819 29.3678 13.913 29.6252C13.844 29.8826 13.725 30.1238 13.5627 30.3352C13.4005 30.5466 13.1982 30.7239 12.9674 30.8571L5.93518 34.9174C5.62725 35.0955 5.27798 35.1896 4.92228 35.1903ZM33.0513 18.2728C32.7531 18.2733 32.4632 18.1753 32.2266 17.9939C31.9899 17.8126 31.8198 17.5582 31.7427 17.2702C31.6655 16.9823 31.6857 16.6769 31.8001 16.4015C31.9145 16.1262 32.1166 15.8964 32.375 15.7478L39.4073 11.6875C39.5613 11.5987 39.7312 11.5411 39.9075 11.518C40.0837 11.4949 40.2628 11.5067 40.4345 11.5528C40.6061 11.5989 40.767 11.6783 40.908 11.7866C41.049 11.8949 41.1672 12.0298 41.256 12.1838C41.3449 12.3378 41.4025 12.5078 41.4256 12.684C41.4487 12.8602 41.4369 13.0393 41.3908 13.211C41.3447 13.3826 41.2653 13.5436 41.157 13.6845C41.0487 13.8255 40.9137 13.9438 40.7598 14.0326L33.7275 18.0929C33.5204 18.2081 33.2882 18.268 33.0513 18.2728ZM12.3492 42.4518C12.0222 42.4528 11.7006 42.3673 11.4171 42.2042C11.1336 42.041 10.8983 41.8059 10.7348 41.5226C10.5713 41.2392 10.4856 40.9178 10.4863 40.5907C10.4869 40.2636 10.5739 39.9425 10.7385 39.6598L14.7988 32.6275C14.9209 32.4158 15.0836 32.2302 15.2775 32.0814C15.4713 31.9325 15.6926 31.8233 15.9287 31.76C16.1648 31.6966 16.4111 31.6804 16.6534 31.7123C16.8958 31.7441 17.1295 31.8233 17.3412 31.9455C17.5529 32.0677 17.7385 32.2303 17.8873 32.4242C18.0362 32.6181 18.1454 32.8394 18.2087 33.0755C18.2721 33.3115 18.2883 33.5578 18.2565 33.8001C18.2246 34.0425 18.1454 34.2762 18.0232 34.4879L13.9629 41.5202C13.7998 41.8038 13.5647 42.0394 13.2813 42.203C12.998 42.3665 12.6764 42.4524 12.3492 42.4518ZM28.5905 13.8149C28.3529 13.8145 28.1195 13.7517 27.9139 13.6327C27.7082 13.5138 27.5374 13.3428 27.4187 13.137C27.2999 12.9312 27.2373 12.6979 27.2372 12.4603C27.2371 12.2227 27.2994 11.9892 27.4179 11.7833L31.4782 4.75105C31.6671 4.45956 31.9606 4.2517 32.2983 4.17036C32.636 4.08902 32.992 4.14042 33.2929 4.31394C33.5937 4.48746 33.8165 4.76987 33.9152 5.10287C34.0139 5.43588 33.981 5.79407 33.8233 6.10351L29.763 13.1358C29.6455 13.3428 29.4749 13.5146 29.2688 13.6335C29.0626 13.7524 28.8284 13.8169 28.5905 13.8149Z"/>
</mask>
<path d="M22.5015 13.5363C21.7833 13.5363 21.0945 13.251 20.5867 12.7432C20.0789 12.2354 19.7936 11.5466 19.7936 10.8284V2.70784C19.7936 1.98967 20.0789 1.30092 20.5867 0.793107C21.0945 0.285289 21.7833 0 22.5015 0C23.2196 0 23.9084 0.285289 24.4162 0.793107C24.924 1.30092 25.2093 1.98967 25.2093 2.70784V10.8284C25.2093 11.5466 24.924 12.2354 24.4162 12.7432C23.9084 13.251 23.2196 13.5363 22.5015 13.5363ZM22.5015 45C22.0527 45 21.6223 44.8217 21.305 44.5044C20.9877 44.1871 20.8094 43.7567 20.8094 43.308V35.1874C20.8094 34.7386 20.9877 34.3082 21.305 33.9909C21.6223 33.6736 22.0527 33.4953 22.5015 33.4953C22.9502 33.4953 23.3806 33.6736 23.6979 33.9909C24.0152 34.3082 24.1935 34.7386 24.1935 35.1874V43.308C24.1935 43.7567 24.0152 44.1871 23.6979 44.5044C23.3806 44.8217 22.9502 45 22.5015 45ZM16.4124 14.999C15.967 14.9978 15.5296 14.8802 15.1437 14.6577C14.7578 14.4352 14.4368 14.1156 14.2125 13.7307L10.1522 6.69848C9.81583 6.1158 9.72471 5.42335 9.89888 4.77347C10.0731 4.12359 10.4983 3.56952 11.0809 3.23315C11.6636 2.89678 12.3561 2.80565 13.006 2.97982C13.6558 3.15399 14.2099 3.57919 14.5463 4.16188L18.6066 11.1941C18.8291 11.5795 18.9463 12.0167 18.9464 12.4618C18.9465 12.9068 18.8296 13.3441 18.6072 13.7296C18.3849 14.1151 18.0651 14.4354 17.6798 14.6582C17.2946 14.881 16.8575 14.9986 16.4124 14.999ZM32.6537 42.1122C32.3865 42.1111 32.1242 42.0404 31.8926 41.907C31.6611 41.7737 31.4682 41.5823 31.3331 41.3518L27.2728 34.3196C27.1672 34.1461 27.0973 33.9533 27.0673 33.7525C27.0372 33.5516 27.0476 33.3468 27.0979 33.1501C27.1481 32.9533 27.2372 32.7686 27.3599 32.6067C27.4825 32.4449 27.6363 32.3092 27.8122 32.2077C27.988 32.1061 28.1824 32.0407 28.3839 32.0153C28.5854 31.99 28.7899 32.0051 28.9854 32.0599C29.1809 32.1147 29.3636 32.2081 29.5225 32.3344C29.6815 32.4608 29.8135 32.6177 29.911 32.7959L33.9713 39.8281C34.1046 40.0596 34.1747 40.322 34.1746 40.5891C34.1745 40.8562 34.1042 41.1186 33.9707 41.3499C33.8373 41.5813 33.6453 41.7735 33.4142 41.9073C33.183 42.0411 32.9208 42.1117 32.6537 42.1122ZM11.9516 19.2886C11.5367 19.2906 11.1288 19.1814 10.7704 18.9723L3.73815 14.912C3.22169 14.5843 2.85183 14.0697 2.70585 13.4757C2.55986 12.8818 2.64904 12.2544 2.95476 11.7246C3.26047 11.1949 3.75907 10.8037 4.34639 10.6329C4.9337 10.4621 5.56429 10.5249 6.10642 10.8081L13.1387 14.8684C13.5884 15.1303 13.9395 15.5329 14.1377 16.0141C14.336 16.4953 14.3705 17.0283 14.2358 17.531C14.1011 18.0338 13.8048 18.4782 13.3925 18.7958C12.9803 19.1134 12.475 19.2866 11.9545 19.2886H11.9516ZM40.0806 34.514C39.843 34.5144 39.6095 34.4512 39.4044 34.3312L32.3721 30.2709C32.0806 30.082 31.8728 29.7885 31.7914 29.4508C31.7101 29.1131 31.7615 28.7571 31.935 28.4563C32.1086 28.1554 32.391 27.9326 32.724 27.8339C33.057 27.7352 33.4152 27.7681 33.7246 27.9258L40.7569 31.9861C41.0131 32.1362 41.213 32.3662 41.3258 32.6408C41.4386 32.9155 41.4581 33.2196 41.3813 33.5064C41.3045 33.7932 41.1356 34.0469 40.9006 34.2284C40.6656 34.4099 40.3775 34.5122 40.0806 34.514ZM10.3205 25.2093H2.19994C1.61648 25.2093 1.05691 24.9775 0.644346 24.5649C0.231778 24.1524 0 23.5928 0 23.0094C0 22.4259 0.231778 21.8663 0.644346 21.4538C1.05691 21.0412 1.61648 20.8094 2.19994 20.8094H10.3205C10.904 20.8094 11.4636 21.0412 11.8761 21.4538C12.2887 21.8663 12.5205 22.4259 12.5205 23.0094C12.5205 23.5928 12.2887 24.1524 11.8761 24.5649C11.4636 24.9775 10.904 25.2093 10.3205 25.2093ZM42.803 24.3618H34.6824C34.3237 24.3618 33.9797 24.2193 33.726 23.9657C33.4724 23.7121 33.3299 23.368 33.3299 23.0094C33.3299 22.6507 33.4724 22.3067 33.726 22.053C33.9797 21.7994 34.3237 21.6569 34.6824 21.6569H42.803C43.1617 21.6569 43.5057 21.7994 43.7593 22.053C44.0129 22.3067 44.1554 22.6507 44.1554 23.0094C44.1554 23.368 44.0129 23.7121 43.7593 23.9657C43.5057 24.2193 43.1617 24.3618 42.803 24.3618ZM4.92228 35.1903C4.47373 35.1938 4.03671 35.0483 3.67975 34.7766C3.32279 34.505 3.06608 34.1226 2.94988 33.6893C2.83368 33.256 2.86457 32.7965 3.03769 32.3827C3.21081 31.9689 3.51638 31.6242 3.90648 31.4028L10.9387 27.3425C11.4048 27.0734 11.9587 27.0006 12.4784 27.1399C12.7358 27.2089 12.9771 27.3279 13.1885 27.4902C13.3999 27.6524 13.5772 27.8547 13.7104 28.0855C13.8436 28.3162 13.9301 28.571 13.9648 28.8352C13.9996 29.0994 13.9819 29.3678 13.913 29.6252C13.844 29.8826 13.725 30.1238 13.5627 30.3352C13.4005 30.5466 13.1982 30.7239 12.9674 30.8571L5.93518 34.9174C5.62725 35.0955 5.27798 35.1896 4.92228 35.1903ZM33.0513 18.2728C32.7531 18.2733 32.4632 18.1753 32.2266 17.9939C31.9899 17.8126 31.8198 17.5582 31.7427 17.2702C31.6655 16.9823 31.6857 16.6769 31.8001 16.4015C31.9145 16.1262 32.1166 15.8964 32.375 15.7478L39.4073 11.6875C39.5613 11.5987 39.7312 11.5411 39.9075 11.518C40.0837 11.4949 40.2628 11.5067 40.4345 11.5528C40.6061 11.5989 40.767 11.6783 40.908 11.7866C41.049 11.8949 41.1672 12.0298 41.256 12.1838C41.3449 12.3378 41.4025 12.5078 41.4256 12.684C41.4487 12.8602 41.4369 13.0393 41.3908 13.211C41.3447 13.3826 41.2653 13.5436 41.157 13.6845C41.0487 13.8255 40.9137 13.9438 40.7598 14.0326L33.7275 18.0929C33.5204 18.2081 33.2882 18.268 33.0513 18.2728ZM12.3492 42.4518C12.0222 42.4528 11.7006 42.3673 11.4171 42.2042C11.1336 42.041 10.8983 41.8059 10.7348 41.5226C10.5713 41.2392 10.4856 40.9178 10.4863 40.5907C10.4869 40.2636 10.5739 39.9425 10.7385 39.6598L14.7988 32.6275C14.9209 32.4158 15.0836 32.2302 15.2775 32.0814C15.4713 31.9325 15.6926 31.8233 15.9287 31.76C16.1648 31.6966 16.4111 31.6804 16.6534 31.7123C16.8958 31.7441 17.1295 31.8233 17.3412 31.9455C17.5529 32.0677 17.7385 32.2303 17.8873 32.4242C18.0362 32.6181 18.1454 32.8394 18.2087 33.0755C18.2721 33.3115 18.2883 33.5578 18.2565 33.8001C18.2246 34.0425 18.1454 34.2762 18.0232 34.4879L13.9629 41.5202C13.7998 41.8038 13.5647 42.0394 13.2813 42.203C12.998 42.3665 12.6764 42.4524 12.3492 42.4518ZM28.5905 13.8149C28.3529 13.8145 28.1195 13.7517 27.9139 13.6327C27.7082 13.5138 27.5374 13.3428 27.4187 13.137C27.2999 12.9312 27.2373 12.6979 27.2372 12.4603C27.2371 12.2227 27.2994 11.9892 27.4179 11.7833L31.4782 4.75105C31.6671 4.45956 31.9606 4.2517 32.2983 4.17036C32.636 4.08902 32.992 4.14042 33.2929 4.31394C33.5937 4.48746 33.8165 4.76987 33.9152 5.10287C34.0139 5.43588 33.981 5.79407 33.8233 6.10351L29.763 13.1358C29.6455 13.3428 29.4749 13.5146 29.2688 13.6335C29.0626 13.7524 28.8284 13.8169 28.5905 13.8149Z" fill="var(--fill-0, #FE5F2A)" stroke="var(--stroke-1, #FFF5EF)" stroke-width="2" mask="url(#path-1-inside-1_0_4)"/>
</g>
</svg>
